<svg xmlns="http://www.w3.org/2000/svg" viewBox="0 0 180 180">
  <rect width="180" height="180" rx="40" fill="#35201a"/>
  <rect x="20" y="20" width="140" height="140" rx="30" fill="#fff4e7"/>
  <path d="M56 62h68c9.941 0 18 8.059 18 18v38c0 9.941-8.059 18-18 18H56c-9.941 0-18-8.059-18-18V80c0-9.941 8.059-18 18-18Z" fill="#f2d9c4"/>
  <path d="M72 52c0-8.837 7.163-16 16-16h8c8.837 0 16 7.163 16 16v14h-12V56c0-4.418-3.582-8-8-8h0c-4.418 0-8 3.582-8 8v10H72V52Z" fill="#9f4f3d"/>
  <path d="M64 84h38v10H64zM64 102h38v10H64z" fill="#35201a"/>
  <circle cx="118" cy="99" r="22" fill="#315f4d"/>
  <path d="M115 87h6v9h9v6h-9v9h-6v-9h-9v-6h9z" fill="#fffaf5"/>
</svg>
