<svg xmlns="http://www.w3.org/2000/svg" viewBox="0 0 512 512">
  <rect width="512" height="512" fill="#35201a"/>
  <circle cx="256" cy="256" r="172" fill="#fff4e7"/>
  <path d="M184 182h144c19.882 0 36 16.118 36 36v76c0 19.882-16.118 36-36 36H184c-19.882 0-36-16.118-36-36v-76c0-19.882 16.118-36 36-36Z" fill="#f2d9c4"/>
  <path d="M214 162c0-17.673 14.327-32 32-32h20c17.673 0 32 14.327 32 32v28h-22v-22c0-8.837-7.163-16-16-16h-8c-8.837 0-16 7.163-16 16v22h-22v-28Z" fill="#9f4f3d"/>
  <path d="M198 230h84v24h-84zM198 270h84v24h-84z" fill="#35201a"/>
  <circle cx="322" cy="256" r="44" fill="#315f4d"/>
  <path d="M316 232h12v18h18v12h-18v18h-12v-18h-18v-12h18z" fill="#fffaf5"/>
</svg>
